<?xml version="1.0" encoding="utf-8"?>
<!-- Generator: Adobe Illustrator 27.7.0, SVG Export Plug-In . SVG Version: 6.00 Build 0)  -->
<svg version="1.1" id="Capa_1" xmlns="http://www.w3.org/2000/svg" xmlns:xlink="http://www.w3.org/1999/xlink" x="0px" y="0px"
	 viewBox="0 0 200 184.83" style="enable-background:new 0 0 200 184.83;" xml:space="preserve">
<style type="text/css">
	.st0{fill:#216492;}
	.st1{fill:#009B8E;}
</style>
<path class="st0" d="M200,82.99v101.83h-82.98c-20.61,0-37.33-16.71-37.33-37.33v-106h41.5v101.83h37.31V82.99H200z M79.7,0H37.33
	C16.71,0,0,16.71,0,37.33v106h41.5V41.5h38.2V0z M121.19,0h-41.5v41.5h41.5V0z M200,41.5h-41.5v41.5H200V41.5z M41.5,143.33H0v41.5
	h41.5V143.33z"/>
<g>
	<rect x="79.69" class="st1" width="41.5" height="41.5"/>
</g>
<g>
	<rect x="158.5" y="41.5" class="st1" width="41.5" height="41.5"/>
</g>
<g>
	<rect y="143.33" class="st1" width="41.5" height="41.5"/>
</g>
</svg>
