<?xml version="1.0" encoding="utf-8"?>
<!-- Generator: Adobe Illustrator 27.7.0, SVG Export Plug-In . SVG Version: 6.00 Build 0)  -->
<svg version="1.1" id="Capa_1" xmlns="http://www.w3.org/2000/svg" xmlns:xlink="http://www.w3.org/1999/xlink" x="0px" y="0px"
	 viewBox="0 0 200 184.83" style="enable-background:new 0 0 200 184.83;" xml:space="preserve">
<style type="text/css">
	.st0{clip-path:url(#SVGID_00000042717620304929217150000001241378377711557287_);}
	.st1{opacity:0.1;fill:#FFFFFF;}
	.st2{opacity:0.2;fill:#FFFFFF;}
	.st3{opacity:0.3;fill:#FFFFFF;}
	.st4{opacity:0.4;fill:#FFFFFF;}
	.st5{opacity:0.5;fill:#FFFFFF;}
	.st6{opacity:0.6;fill:#FFFFFF;}
	.st7{opacity:0.7;fill:#FFFFFF;}
	.st8{opacity:0.8;fill:#FFFFFF;}
	.st9{fill:#009B8E;}
</style>
<g>
	<g>
		<g>
			<defs>
				<path id="SVGID_1_" d="M200,82.99v101.83h-82.98c-20.61,0-37.33-16.71-37.33-37.33v-106h41.5v101.83h37.31V82.99H200z M79.7,0
					H37.33C16.71,0,0,16.71,0,37.33v106h41.5V41.5h38.2V0z M121.19,0h-41.5v41.5h41.5V0z M200,41.5h-41.5v41.5H200V41.5z
					 M41.5,143.33H0v41.5h41.5V143.33z"/>
			</defs>
			<use xlink:href="#SVGID_1_"  style="overflow:visible;fill:#216492;"/>
			<clipPath id="SVGID_00000116937984458383734950000005046339034448365701_">
				<use xlink:href="#SVGID_1_"  style="overflow:visible;"/>
			</clipPath>
			<g style="clip-path:url(#SVGID_00000116937984458383734950000005046339034448365701_);">
				<path class="st1" d="M121.05,143.62V104.3c-7.73-24.08-22.42-45.05-41.71-60.52v104.13c0,20.57,16.68,37.25,37.25,37.25h3.53
					c4.52-13.02,6.99-26.99,7.02-41.54H121.05z"/>
				<path class="st1" d="M41.55,41.78h35.19C56.98,26.74,32.71,17.3,6.3,15.93c0,0-1.95,2.1-3.97,7.26
					c-2.84,7.27-2.77,13.48-2.77,13.48l0.29,148.51h41.69V41.78z"/>
				<path class="st2" d="M-0.14,185.17h41.69V47.91C28.7,42.25,14.5,39.08-0.44,39.08c-0.37,0,0.67,0.02,0.3,0.03V185.17z"/>
				<path class="st2" d="M79.33,76.25v73.73c0,3.59,1.81,11.01,5.22,16.75c4.99,8.39,12.79,12.76,12.79,12.76
					c4.17-11.27,6.47-23.44,6.47-36.16C103.81,117.78,94.6,94.38,79.33,76.25z"/>
				<path class="st3" d="M79.33,123.37v26.62l0.18,2.29l1.06,5.16c0.8-4.58,1.21-9.29,1.21-14.1
					C81.79,136.44,80.93,129.76,79.33,123.37z"/>
				<path class="st3" d="M-0.14,185.17h41.69V72.63C29.26,65.32,14.9,61.1-0.44,61.1c-0.37,0,0.67,0.02,0.3,0.03V185.17z"/>
				<path class="st4" d="M-0.14,185.17h41.69V97.25C30.47,87.15,15.74,80.98-0.44,80.98c-0.37,0,0.67,0.02,0.3,0.03V185.17z"/>
				<path class="st5" d="M41.55,131.77c-5.07-18.44-21.94-31.99-41.99-31.99c-0.37,0,0.67,0.02,0.3,0.03v85.36h11.81
					c14.51-4.19,25.89-15.73,29.88-30.33V131.77z"/>
				<path class="st6" d="M-0.44,113.48c-0.37,0,0.67,0.04,0.3,0.06v59.59c0.37,0.01-0.67,0.06-0.3,0.06
					c16.49,0,29.85-13.36,29.85-29.85S16.05,113.48-0.44,113.48z"/>
				<path class="st7" d="M-0.44,125c-0.37,0,0.67,0.03,0.3,0.06v36.54c0.37,0.02-0.67,0.06-0.3,0.06c10.12,0,18.33-8.21,18.33-18.33
					C17.89,133.21,9.68,125-0.44,125z"/>
				<path class="st8" d="M-0.44,134.11c-0.37,0,0.66,0.03,0.3,0.07v18.3c0.36,0.04-0.67,0.07-0.3,0.07c5.09,0,9.22-4.13,9.22-9.22
					C8.78,138.24,4.65,134.11-0.44,134.11z"/>
			</g>
			<g style="clip-path:url(#SVGID_00000116937984458383734950000005046339034448365701_);">
				<path class="st1" d="M157.64,64.32v79.3h-36.6V84.28c-18.89,14.77-33.52,34.75-41.71,57.78v5.57c0,20.73,16.8,37.53,37.53,37.53
					h82.49V57.25C184.74,57.27,170.71,59.78,157.64,64.32z"/>
				<path class="st2" d="M157.64,89.38v54.24h-36.6v-27.33c-14.68,16.8-24.07,38.34-25.53,62.03c-0.13,2.15,8.86,6.59,21.63,6.63
					c30.51,0.11,82.22,0.22,82.22,0.22V80.59C184.52,80.61,170.41,83.76,157.64,89.38z"/>
				<path class="st3" d="M157.64,114.09v29.53h-29.23c-7.03,12.12-11.08,26.18-11.08,41.21c0,0.11,0.01,0.22,0.01,0.34h82.02V102.6
					C184.12,102.64,169.86,106.84,157.64,114.09z"/>
				<path class="st4" d="M157.64,138.68v4.94h-4.85c-9.69,10.99-15.58,25.4-15.58,41.21c0,0.11,0.01,0.22,0.01,0.34h62.13v-62.68
					C183.3,122.54,168.67,128.66,157.64,138.68z"/>
				<path class="st5" d="M199.36,185.17v-43.89C175.4,141.39,156,160.84,156,184.83c0,0.11,0.01,0.22,0.01,0.34H199.36z"/>
				<path class="st6" d="M199.36,185.17v-30.18c-16.39,0.11-29.65,13.42-29.65,29.84c0,0.11,0.02,0.22,0.02,0.34H199.36z"/>
				<path class="st7" d="M199.36,185.17v-18.66c-10.03,0.11-18.13,8.26-18.13,18.32c0,0.11,0.01,0.22,0.02,0.34H199.36z"/>
				<path class="st8" d="M199.36,185.17v-9.55c-5,0.11-9.02,4.19-9.02,9.21c0,0.11,0.01,0.23,0.02,0.34H199.36z"/>
			</g>
		</g>
		<g>
			<rect x="79.69" class="st9" width="41.5" height="41.5"/>
		</g>
		<g>
			<rect x="158.5" y="41.5" class="st9" width="41.5" height="41.5"/>
		</g>
		<g>
			<rect y="143.33" class="st9" width="41.5" height="41.5"/>
		</g>
	</g>
</g>
</svg>
